<svg xmlns="http://www.w3.org/2000/svg" viewBox="0 0 32 40" x="0px" y="0px">
	<title>Dashboard, ui, basic, essential, Home</title>
	<g data-name="Layer 2">
		<path d="M28.81,13.53,17.36,2.9a2,2,0,0,0-2.72,0L3.19,13.53A2,2,0,0,0,4.55,17H6V27a3,3,0,0,0,3,3h3V22a3,3,0,0,1,3-3h2a3,3,0,0,1,3,3v8h3a3,3,0,0,0,3-3V17h1.45a2,2,0,0,0,1.36-3.47Z"/>
	</g>
	<text x="0" y="47" fill="#000000" font-size="5px" font-weight="bold" font-family="'Helvetica Neue', Helvetica, Arial-Unicode, Arial, Sans-serif">Created by CR Kurniawan</text>
	<text x="0" y="52" fill="#000000" font-size="5px" font-weight="bold" font-family="'Helvetica Neue', Helvetica, Arial-Unicode, Arial, Sans-serif">from the Noun Project</text>
</svg>