<?xml version="1.0" encoding="UTF-8" standalone="no"?>
<!DOCTYPE svg PUBLIC "-//W3C//DTD SVG 1.1//EN" "http://www.w3.org/Graphics/SVG/1.1/DTD/svg11.dtd">
<svg xmlns:xlink="http://www.w3.org/1999/xlink" xmlns:serif="http://www.serif.com/" width="100%" height="100%" viewBox="0 0 100 100" version="1.1" xmlns="http://www.w3.org/2000/svg" xml:space="preserve"
		 style="fill-rule:evenodd;clip-rule:evenodd;stroke-linejoin:round;stroke-miterlimit:2;">
    <g>
        <path d="M92.115,5.123c1.538,0 2.787,1.058 2.787,2.36l-0,17.055c-0,1.303 -1.249,2.36 -2.787,2.36l-20.187,0c-1.538,0 -2.787,-1.057 -2.787,-2.36l0,-17.055c0,-1.302 1.249,-2.36 2.787,-2.36l20.187,0Z" style="fill:white;"/>
			<path d="M92.197,59.568c1.547,0 2.803,1.064 2.803,2.374l-0,30.685c-0,1.31 -1.256,2.373 -2.803,2.373l-20.253,-0c-1.547,-0 -2.803,-1.063 -2.803,-2.373l0,-30.685c0,-1.31 1.256,-2.374 2.803,-2.374l20.253,0Z" style="fill:white;"/>
			<path d="M92.115,32.284c1.538,0 2.787,1.058 2.787,2.36l-0,17.056c-0,1.302 -1.249,2.36 -2.787,2.36l-20.187,-0c-1.538,-0 -2.787,-1.058 -2.787,-2.36l0,-17.056c0,-1.302 1.249,-2.36 2.787,-2.36l20.187,0Z" style="fill:white;"/>
    </g>
	<g>
        <path d="M27.879,5c1.535,0 2.782,1.055 2.782,2.355l-0,58.006c-0,1.299 -1.247,2.355 -2.782,2.355l-20.098,-0c-1.535,-0 -2.781,-1.056 -2.781,-2.355l0,-58.006c0,-1.3 1.246,-2.355 2.781,-2.355l20.098,-0Z" style="fill:white;"/>
		<path d="M60.077,5c1.546,0 2.802,1.063 2.802,2.373l0,17.152c0,1.31 -1.256,2.373 -2.802,2.373l-20.254,0c-1.547,0 -2.803,-1.063 -2.803,-2.373l0,-17.152c0,-1.31 1.256,-2.373 2.803,-2.373l20.254,0Z" style="fill:white;"/>
		<path d="M60.077,73.102c1.546,-0 2.802,1.063 2.802,2.373l0,17.152c0,1.31 -1.256,2.373 -2.802,2.373l-52.274,-0c-1.547,-0 -2.803,-1.063 -2.803,-2.373l0,-17.152c0,-1.31 1.256,-2.373 2.803,-2.373l52.274,-0Z" style="fill:white;"/>
		<path d="M60.077,32.284c1.546,0 2.802,1.064 2.802,2.374l0,30.684c0,1.31 -1.256,2.374 -2.802,2.374l-20.254,-0c-1.547,-0 -2.803,-1.064 -2.803,-2.374l0,-30.684c0,-1.31 1.256,-2.374 2.803,-2.374l20.254,0Z" style="fill:white;"/>
    </g>
</svg>
